<svg xmlns="http://www.w3.org/2000/svg" width="60" height="60" viewBox="0 0 60 60">
  <path fill="#000" d="M13 0h34c7.18 0 13 5.82 13 13v34c0 7.18-5.82 13-13 13H13C5.82 60 0 54.18 0 47V13C0 5.82 5.82 0 13 0Zm-1 13.5a4.5 4.5 0 1 0 0 9 4.5 4.5 0 0 0 0-9Zm0 24a4.5 4.5 0 1 0 0 9 4.5 4.5 0 0 0 0-9Zm36-24a4.5 4.5 0 1 0 0 9 4.5 4.5 0 0 0 0-9Zm0 24a4.5 4.5 0 1 0 0 9 4.5 4.5 0 0 0 0-9ZM30 20.5a9.5 9.5 0 1 0 0 19 9.5 9.5 0 0 0 0-19Zm-14.5-.9 12 8a2 2 0 0 0 2.2-3.3l-12-8a2 2 0 0 0-2.2 3.3Zm2.2 24.1 12-8a2 2 0 1 0-2.2-3.3l-12 8a2 2 0 0 0 2.2 3.3Zm14.8-16.1 12-8a2 2 0 1 0-2.2-3.3l-12 8a2 2 0 0 0 2.2 3.3Zm-2.2 8.1 12 8a2 2 0 1 0 2.2-3.3l-12-8a2 2 0 1 0-2.2 3.3Z"/>
</svg>
